{
    "asset" : {
        "generator" : "Khronos glTF Blender I/O v1.5.17",
        "version" : "2.0"
    },
    "scene" : 0,
    "scenes" : [
        {
            "name" : "Scene",
            "nodes" : [
                0,
                1,
                2,
                3
            ]
        }
    ],
    "nodes" : [
        {
            "name" : "Camera",
            "rotation" : [
                0.6554355621337891,
                0.1339237242937088,
                -0.119656041264534,
                0.7335878014564514
            ],
            "translation" : [
                3.8807435035705566,
                1.8109179735183716,
                9.490556716918945
            ]
        },
        {
            "name" : "Area.001",
            "rotation" : [
                -0.07681334018707275,
                0.01183763425797224,
                0.3260189890861511,
                0.9421630501747131
            ],
            "translation" : [
                -4.138922691345215,
                5.224492073059082,
                -1.2780630588531494
            ]
        },
        {
            "name" : "Area.002",
            "rotation" : [
                -0.06904412060976028,
                -0.033447179943323135,
                -0.4010908007621765,
                0.9128199815750122
            ],
            "scale" : [
                1.6741914749145508,
                1.6741913557052612,
                1.6741913557052612
            ],
            "translation" : [
                5.297019958496094,
                4.667891025543213,
                -1.1840252876281738
            ]
        },
        {
            "mesh" : 0,
            "name" : "Grid",
            "rotation" : [
                0.6806095838546753,
                0,
                0,
                0.7326462864875793
            ],
            "translation" : [
                0,
                1.0224958658218384,
                0
            ]
        }
    ],
    "materials" : [
        {
            "doubleSided" : true,
            "name" : "Material",
            "pbrMetallicRoughness" : {
                "baseColorTexture" : {
                    "index" : 0
                },
                "metallicFactor" : 0,
                "roughnessFactor" : 0.5
            }
        }
    ],
    "meshes" : [
        {
            "name" : "Grid",
            "primitives" : [
                {
                    "attributes" : {
                        "POSITION" : 0,
                        "NORMAL" : 1,
                        "TEXCOORD_0" : 2
                    },
                    "indices" : 3,
                    "material" : 0
                }
            ]
        }
    ],
    "textures" : [
        {
            "sampler" : 0,
            "source" : 0
        }
    ],
    "images" : [
        {
            "bufferView" : 4,
            "mimeType" : "image/jpeg",
            "name" : "2"
        }
    ],
    "accessors" : [
        {
            "bufferView" : 0,
            "componentType" : 5126,
            "count" : 168,
            "max" : [
                1,
                0,
                1
            ],
            "min" : [
                -1,
                0,
                -1
            ],
            "type" : "VEC3"
        },
        {
            "bufferView" : 1,
            "componentType" : 5126,
            "count" : 168,
            "type" : "VEC3"
        },
        {
            "bufferView" : 2,
            "componentType" : 5126,
            "count" : 168,
            "type" : "VEC2"
        },
        {
            "bufferView" : 3,
            "componentType" : 5123,
            "count" : 486,
            "type" : "SCALAR"
        }
    ],
    "bufferViews" : [
        {
            "buffer" : 0,
            "byteLength" : 2016,
            "byteOffset" : 0
        },
        {
            "buffer" : 0,
            "byteLength" : 2016,
            "byteOffset" : 2016
        },
        {
            "buffer" : 0,
            "byteLength" : 1344,
            "byteOffset" : 4032
        },
        {
            "buffer" : 0,
            "byteLength" : 972,
            "byteOffset" : 5376
        },
        {
            "buffer" : 0,
            "byteLength" : 41393,
            "byteOffset" : 6348
        }
    ],
    "samplers" : [
        {
            "magFilter" : 9729,
            "minFilter" : 9987
        }
    ],
    "buffers" : [
        {
            "byteLength" : 47744,
            "uri" : "data:application/octet-stream;base64,"
        }
    ]
}
